<svg width="120" height="121" viewBox="0 0 120 121" fill="none" xmlns="http://www.w3.org/2000/svg">
<g clip-path="url(#clip0_140_574)">
<g clip-path="url(#clip1_140_574)">
<path d="M51.372 103.655C55.4836 109.098 59.5953 114.557 63.707 120C52.1499 114.845 40.5928 109.691 29.0198 104.52C25.559 91.2647 22.0982 78.0096 18.6216 64.7385C24.924 74.2316 31.2423 83.7247 37.5447 93.2177C36.751 86.8623 35.9414 80.5229 35.1476 74.1676C40.5451 83.9808 45.9586 93.81 51.3561 103.623L51.372 103.655Z" fill="#2D2D2D"/>
<path d="M40.9421 65.539C38.164 65.3629 35.3699 65.2028 32.5918 65.0267C36.1796 59.1035 39.7515 53.1964 43.3393 47.2732C45.6412 47.4813 47.943 47.7055 50.2449 47.9136C49.7369 48.8741 49.2448 49.8186 48.7368 50.7791C48.4034 51.4034 48.0859 52.0118 47.7525 52.6361C47.4985 52.6681 47.2287 52.7001 46.9747 52.7321C50.7053 52.2519 54.436 51.7716 58.1666 51.2914C56.9601 47.4653 55.7377 43.6393 54.5312 39.7972C50.0068 48.3778 45.4665 56.9584 40.9421 65.539Z" fill="#2D2D2D"/>
<path d="M23.1458 85.0693C22.241 91.8569 21.3202 98.6446 20.4153 105.416C15.8592 93.5218 11.303 81.6435 6.74683 69.7492C13.589 57.9028 20.4471 46.0565 27.2893 34.2102C25.0985 45.4162 22.8918 56.6382 20.7011 67.8441C24.5905 62.7854 28.4799 57.7267 32.3534 52.6681C29.2895 63.4738 26.2256 74.2636 23.1617 85.0693H23.1458Z" fill="#2D2D2D"/>
<path d="M42.4818 50.683C40.6244 48.5859 38.7829 46.4728 36.9414 44.3757C43.6248 42.7428 50.3083 41.1099 56.9917 39.4771C58.4681 41.27 59.9445 43.063 61.4209 44.8559C60.389 45.1761 59.373 45.4803 58.3411 45.8004C57.6743 46.0085 57.0235 46.2006 56.3567 46.4087C56.1503 46.2487 55.9439 46.0886 55.7376 45.9285C58.7062 48.2497 61.6907 50.571 64.6594 52.8922C66.485 49.3223 68.3107 45.7524 70.1522 42.1825C60.9287 45.016 51.7053 47.8495 42.4977 50.683H42.4818Z" fill="#2D2D2D"/>
<path d="M16.2085 51.8037C10.811 55.9499 5.39755 60.0961 0 64.2423C5.11179 52.5881 10.2236 40.9339 15.3513 29.2637C28.4959 25.7738 41.6405 22.2839 54.801 18.7781C45.387 25.1335 35.9731 31.5049 26.5591 37.8603C32.8615 37.0598 39.1481 36.2434 45.4505 35.443C35.7191 40.8859 25.9717 46.3448 16.2403 51.7877L16.2085 51.8037Z" fill="#2D2D2D"/>
<path d="M54.0073 41.2861C54.182 38.4846 54.3407 35.6671 54.5153 32.8656C60.3891 36.4835 66.2471 40.0854 72.1209 43.7034C71.9145 46.0246 71.6922 48.3459 71.4858 50.6671C70.5333 50.1548 69.5967 49.6586 68.6442 49.1463C68.0251 48.8101 67.4218 48.4899 66.8027 48.1538C66.7709 47.8976 66.7392 47.6255 66.7074 47.3693C67.1837 51.1313 67.6599 54.8933 68.1362 58.6554C71.9303 57.4387 75.7245 56.206 79.5345 54.9894C71.0255 50.427 62.5164 45.8485 54.0073 41.2861Z" fill="#2D2D2D"/>
<path d="M34.6395 23.3404C27.9084 22.4279 21.1773 21.4994 14.4622 20.5869C26.2574 15.9925 38.0367 11.398 49.832 6.80359C61.5796 13.7033 73.3272 20.619 85.0748 27.5186C73.9622 25.3095 62.8337 23.0843 51.7211 20.8751C56.7376 24.7972 61.7542 28.7193 66.7707 32.6254C56.055 29.5357 45.3552 26.4461 34.6395 23.3564V23.3404Z" fill="#2D2D2D"/>
<path d="M68.7394 42.8388C70.819 40.9658 72.9145 39.1088 74.9942 37.2518C76.6134 43.9914 78.2327 50.731 79.8519 57.4706C78.0739 58.9594 76.2959 60.4482 74.5179 61.937C74.2004 60.8964 73.8988 59.8719 73.5813 58.8313C73.3749 58.159 73.1844 57.5026 72.978 56.8303C73.1368 56.6222 73.2955 56.4141 73.4543 56.2059C71.1524 59.1995 68.8505 62.2091 66.5486 65.2027C70.0887 67.0437 73.6289 68.8847 77.1691 70.7417C74.3592 61.4407 71.5493 52.1398 68.7394 42.8548V42.8388Z" fill="#2D2D2D"/>
<path d="M67.6279 16.3447C63.5163 10.9018 59.4046 5.4429 55.293 0C66.8501 5.15475 78.4072 10.3095 89.9801 15.4803C93.4409 28.7353 96.9017 41.9904 100.378 55.2615C94.0759 45.7684 87.7576 36.2753 81.4552 26.7823C82.2489 33.1377 83.0586 39.4771 83.8523 45.8324C78.4548 36.0192 73.0414 26.19 67.6438 16.3767L67.6279 16.3447Z" fill="#2D2D2D"/>
<path d="M78.0739 54.4611C80.852 54.6372 83.6461 54.7972 86.4242 54.9733C82.8364 60.8965 79.2645 66.8036 75.6767 72.7268C73.3748 72.5187 71.0729 72.2946 68.7711 72.0865C69.2791 71.1259 69.7712 70.1814 70.2792 69.2209C70.6126 68.5966 70.9301 67.9883 71.2634 67.3639C71.5175 67.3319 71.7873 67.2999 72.0413 67.2679C68.3107 67.7481 64.58 68.2284 60.8494 68.7087C62.0559 72.5347 63.2783 76.3607 64.4848 80.2028C69.0092 71.6222 73.5495 63.0416 78.0739 54.4611Z" fill="#2D2D2D"/>
<path d="M95.8541 34.9306C96.7589 28.143 97.6797 21.3554 98.5846 14.5837C103.141 26.4781 107.697 38.3564 112.253 50.2508C105.411 62.0971 98.5528 73.9434 91.7106 85.7897C93.9014 74.5837 96.1081 63.3618 98.2988 52.1558C94.4094 57.2145 90.52 62.2732 86.6465 67.3319C89.7104 56.5261 92.7743 45.7364 95.8382 34.9306H95.8541Z" fill="#2D2D2D"/>
<path d="M76.5183 69.317C78.3757 71.4141 80.2172 73.5272 82.0587 75.6243C75.3752 77.2572 68.6918 78.8901 62.0084 80.5229C60.532 78.73 59.0556 76.937 57.5792 75.1441C58.6111 74.8239 59.6271 74.5197 60.659 74.1996C61.3258 73.9915 61.9766 73.7994 62.6434 73.5913C62.8498 73.7513 63.0561 73.9114 63.2625 74.0715C60.2939 71.7503 57.3093 69.429 54.3407 67.1078C52.5151 70.6777 50.6894 74.2476 48.8479 77.8175C58.0714 74.984 67.2948 72.1505 76.5024 69.317H76.5183Z" fill="#2D2D2D"/>
<path d="M102.791 68.1963C108.189 64.0501 113.602 59.9039 119 55.7577C113.888 67.4119 108.776 79.0661 103.649 90.7363C90.5041 94.2262 77.3595 97.7161 64.199 101.222C73.6129 94.8665 83.0269 88.4951 92.4408 82.1398C86.1384 82.9402 79.8519 83.7566 73.5494 84.557C83.2809 79.1141 93.0282 73.6552 102.76 68.2123L102.791 68.1963Z" fill="#2D2D2D"/>
<path d="M64.9928 78.73C64.8182 81.5315 64.6594 84.349 64.4848 87.1505C58.611 83.5325 52.7531 79.9306 46.8793 76.3127C47.0856 73.9914 47.3079 71.6702 47.5143 69.349C48.4668 69.8612 49.4034 70.3575 50.3559 70.8698C50.975 71.206 51.5783 71.5261 52.1974 71.8623C52.2292 72.1185 52.2609 72.3906 52.2927 72.6467C51.8164 68.8847 51.3402 65.1227 50.8639 61.3607C47.0698 62.5774 43.2756 63.81 39.4656 65.0267C47.9746 69.5891 56.4837 74.1675 64.9928 78.73Z" fill="#2D2D2D"/>
<path d="M84.3762 96.6596C91.1073 97.5721 97.8383 98.5006 104.554 99.413C92.7583 104.007 80.9789 108.602 69.1837 113.196C57.4361 106.297 45.6885 99.381 33.9409 92.4814C45.0535 94.6905 56.182 96.9157 67.2946 99.1249C62.278 95.2028 57.2615 91.2807 52.2449 87.3746C62.9607 90.4643 73.6605 93.5539 84.3762 96.6436V96.6596Z" fill="#2D2D2D"/>
<path d="M50.2605 77.1612C48.1809 79.0342 46.0854 80.8912 44.0057 82.7482C42.3865 76.0086 40.7672 69.269 39.1479 62.5294C40.926 61.0406 42.704 59.5518 44.482 58.063C44.7995 59.1036 45.1011 60.1281 45.4186 61.1687C45.625 61.841 45.8155 62.4974 46.0219 63.1697C45.8631 63.3778 45.7044 63.5859 45.5456 63.7941C47.8475 60.8005 50.1494 57.7909 52.4513 54.7973C48.9112 52.9563 45.371 51.1153 41.8308 49.2583C44.6407 58.5593 47.4506 67.8602 50.2605 77.1452V77.1612Z" fill="#2D2D2D"/>
</g>
</g>
<defs>
<clipPath id="clip0_140_574">
<rect width="119.277" height="120.424" fill="white" transform="translate(0.288086)"/>
</clipPath>
<clipPath id="clip1_140_574">
<rect width="119" height="120" fill="white"/>
</clipPath>
</defs>
</svg>
