<svg width="1312" height="202" viewBox="0 0 1312 202" fill="none" xmlns="http://www.w3.org/2000/svg">
<g clip-path="url(#clip0_429_925)">
<g clip-path="url(#clip1_429_925)">
<g clip-path="url(#clip2_429_925)">
<path d="M86.4468 173.872C93.4047 183.002 100.363 192.159 107.321 201.289C87.7631 192.643 68.2056 183.996 48.6213 175.322C42.7648 153.088 36.9083 130.854 31.0249 108.593C41.6902 124.517 52.3823 140.441 63.0476 156.364C61.7044 145.704 60.3343 135.07 58.991 124.409C68.125 140.87 77.2859 157.358 86.4199 173.819L86.4468 173.872Z" fill="#30FFA7"/>
<path d="M68.7968 109.936C64.0955 109.64 59.3673 109.372 54.666 109.076C60.7374 99.1408 66.782 89.2321 72.8534 79.2965C76.7488 79.6456 80.6442 80.0215 84.5395 80.3706C83.6799 81.9818 82.8471 83.5661 81.9874 85.1773C81.4232 86.2246 80.8859 87.245 80.3218 88.2922C79.892 88.3459 79.4353 88.3996 79.0054 88.4533C85.3186 87.6478 91.6318 86.8422 97.945 86.0366C95.9033 79.6188 93.8347 73.2009 91.793 66.7562C84.1366 81.1494 76.4533 95.5425 68.7968 109.936Z" fill="#30FFA7"/>
<path d="M38.6814 142.696C37.1501 154.082 35.592 165.467 34.0607 176.826C26.3505 156.875 18.6403 136.95 10.9302 116.998C22.5089 97.1269 34.1144 77.2558 45.6931 57.3846C41.9858 76.1817 38.2516 95.0055 34.5442 113.803C41.1261 105.317 47.7079 96.8315 54.2629 88.346C49.078 106.472 43.8932 124.571 38.7083 142.696H38.6814Z" fill="#30FFA7"/>
<path d="M71.4026 85.0163C68.2595 81.4985 65.1432 77.9539 62.0269 74.4362C73.3369 71.6972 84.6469 68.9582 95.957 66.2192C98.4554 69.2268 100.954 72.2343 103.452 75.2418C101.706 75.7789 99.9867 76.2891 98.2405 76.8261C97.1121 77.1752 96.0107 77.4975 94.8824 77.8465C94.5331 77.578 94.1839 77.3095 93.8346 77.041C98.8583 80.9346 103.909 84.8283 108.933 88.722C112.022 82.7338 115.111 76.7456 118.228 70.7574C102.619 75.5103 87.011 80.2633 71.4295 85.0163H71.4026Z" fill="#30FFA7"/>
<path d="M26.9415 86.8959C17.8076 93.8508 8.64669 100.806 -0.487305 107.761C8.16313 88.2117 16.8136 68.6628 25.4909 49.0871C47.7348 43.2331 69.9788 37.3792 92.2496 31.4984C76.3188 42.159 60.3881 52.8465 44.4573 63.5071C55.1226 62.1644 65.761 60.7949 76.4263 59.4523C59.9582 68.5823 43.4633 77.7391 26.9953 86.8691L26.9415 86.8959Z" fill="#30FFA7"/>
<path d="M90.9062 69.2535C91.2018 64.5543 91.4704 59.8282 91.7659 55.1289C101.706 61.1977 111.619 67.2396 121.559 73.3083C121.21 77.202 120.834 81.0956 120.484 84.9893C118.872 84.13 117.287 83.2976 115.675 82.4383C114.628 81.8744 113.607 81.3373 112.559 80.7734C112.505 80.3438 112.452 79.8873 112.398 79.4576C113.204 85.768 114.01 92.0785 114.816 98.3889C121.236 96.3481 127.657 94.2804 134.105 92.2396C119.705 84.5865 105.306 76.9066 90.9062 69.2535Z" fill="#30FFA7"/>
<path d="M58.1313 39.1515C46.7407 37.6209 35.3501 36.0634 23.9863 34.5328C43.9468 26.826 63.8804 19.1193 83.8409 11.4125C103.721 22.9861 123.601 34.5865 143.48 46.1601C124.675 42.4544 105.843 38.7219 87.0378 35.0162C95.527 41.5951 104.016 48.1741 112.505 54.7262C94.3718 49.5436 76.265 44.361 58.1313 39.1784V39.1515Z" fill="#30FFA7"/>
<path d="M115.837 71.8584C119.356 68.7166 122.902 65.6016 126.421 62.4867C129.162 73.7918 131.902 85.0968 134.642 96.4019C131.633 98.8992 128.624 101.397 125.615 103.894C125.078 102.148 124.568 100.43 124.03 98.6844C123.681 97.5566 123.359 96.4556 123.01 95.3278C123.278 94.9787 123.547 94.6296 123.816 94.2805C119.92 99.302 116.025 104.35 112.129 109.372C118.12 112.46 124.111 115.548 130.102 118.663C125.347 103.061 120.592 87.4599 115.837 71.8852V71.8584Z" fill="#30FFA7"/>
<path d="M113.956 27.4168C106.998 18.2868 100.04 9.12998 93.0825 0C112.64 8.64663 132.197 17.2933 151.782 25.9667C157.638 48.2009 163.495 70.4351 169.378 92.6962C158.713 76.7724 148.021 60.8486 137.356 44.9249C138.699 55.5855 140.069 66.2192 141.412 76.8798C132.278 60.419 123.117 43.9313 113.983 27.4705L113.956 27.4168Z" fill="#30FFA7"/>
<path d="M131.634 91.3535C136.335 91.6489 141.063 91.9174 145.764 92.2128C139.693 102.148 133.648 112.057 127.577 121.993C123.682 121.644 119.786 121.268 115.891 120.919C116.75 119.307 117.583 117.723 118.443 116.112C119.007 115.065 119.544 114.044 120.109 112.997C120.538 112.943 120.995 112.89 121.425 112.836C115.112 113.641 108.799 114.447 102.485 115.253C104.527 121.67 106.596 128.088 108.637 134.533C116.294 120.14 123.977 105.747 131.634 91.3535Z" fill="#30FFA7"/>
<path d="M161.722 58.593C163.253 47.2074 164.811 35.8218 166.342 24.463C174.053 44.4147 181.763 64.3395 189.473 84.2912C177.894 104.162 166.289 124.034 154.71 143.905C158.417 125.108 162.151 106.284 165.859 87.4867C159.277 95.9723 152.695 104.458 146.14 112.943C151.325 94.8176 156.51 76.7187 161.695 58.593H161.722Z" fill="#30FFA7"/>
<path d="M129 116.273C132.144 119.791 135.26 123.335 138.376 126.853C127.066 129.592 115.756 132.331 104.446 135.07C101.948 132.063 99.4493 129.055 96.9509 126.048C98.6971 125.51 100.416 125 102.163 124.463C103.291 124.114 104.392 123.792 105.521 123.443C105.87 123.711 106.219 123.98 106.568 124.248C101.545 120.355 96.4942 116.461 91.4705 112.567C88.381 118.556 85.2916 124.544 82.1753 130.532C97.7837 125.779 113.392 121.026 128.974 116.273H129Z" fill="#30FFA7"/>
<path d="M173.461 114.393C182.595 107.438 191.756 100.483 200.89 93.5286C192.24 113.077 183.589 132.626 174.912 152.202C152.668 158.056 130.424 163.91 108.153 169.791C124.084 159.13 140.015 148.443 155.946 137.782C145.28 139.125 134.642 140.494 123.977 141.837C140.445 132.707 156.94 123.55 173.408 114.42L173.461 114.393Z" fill="#30FFA7"/>
<path d="M109.497 132.062C109.201 136.762 108.933 141.488 108.637 146.187C98.6972 140.118 88.7841 134.076 78.8442 128.008C79.1934 124.114 79.5695 120.22 79.9187 116.327C81.5306 117.186 83.1156 118.018 84.7275 118.878C85.7752 119.442 86.7961 119.979 87.8438 120.543C87.8976 120.972 87.9513 121.429 88.005 121.858C87.1991 115.548 86.3931 109.238 85.5872 102.927C79.1665 104.968 72.7459 107.036 66.2983 109.076C80.6978 116.729 95.0973 124.409 109.497 132.062Z" fill="#30FFA7"/>
<path d="M142.298 162.138C153.689 163.668 165.08 165.226 176.443 166.756C156.483 174.463 136.549 182.17 116.589 189.877C96.709 178.303 76.8291 166.703 56.9492 155.129C75.7545 158.835 94.5866 162.567 113.392 166.273C104.903 159.694 96.4134 153.115 87.9242 146.563C106.058 151.746 124.165 156.928 142.298 162.111V162.138Z" fill="#30FFA7"/>
<path d="M84.566 129.431C81.0468 132.573 77.5006 135.688 73.9813 138.803C71.2411 127.498 68.5009 116.192 65.7607 104.887C68.7696 102.39 71.7784 99.8927 74.7873 97.3954C75.3246 99.1409 75.835 100.859 76.3723 102.605C76.7215 103.733 77.0439 104.834 77.3932 105.962C77.1245 106.311 76.8559 106.66 76.5872 107.009C80.4826 101.987 84.378 96.9389 88.2734 91.9174C82.2825 88.8294 76.2917 85.7413 70.3009 82.6263C75.0559 98.2279 79.811 113.829 84.566 129.404V129.431Z" fill="#30FFA7"/>
</g>
</g>
</g>
<path d="M231.282 173.281L240.842 101L231.282 28.7195H279.891V134.538L267.549 123.937L338.373 28.7195H389.641L275.713 173.281H231.282ZM299.638 106.782L335.715 78.063L391.54 173.281H336.095L299.638 106.782Z" fill="#30FFA7"/>
<path d="M434.933 148.994V109.481H531.961V148.994H434.933ZM516.961 28.7195L579.431 173.281H527.214L478.035 50.6927H490.567L441.389 173.281H389.172L451.642 28.7195H516.961Z" fill="#30FFA7"/>
<path d="M639.26 28.7195V151.307L617.234 128.948H723.187V173.281H590.272V28.7195H639.26Z" fill="#30FFA7"/>
<path d="M865.643 83.8454V118.155H758.362V83.8454H865.643ZM791.97 101L783.236 154.777L764.628 133.96H872.669V173.281H734.817L745.26 101L734.817 28.7195H871.72V68.0401H764.628L783.236 47.2233L791.97 101Z" fill="#30FFA7"/>
<path d="M892.706 28.7195H941.694V173.281H892.706V28.7195Z" fill="#30FFA7"/>
<path d="M1040.04 28.7195C1057.38 28.7195 1072.51 31.7392 1085.42 37.7786C1098.46 43.6896 1108.58 52.042 1115.8 62.8359C1123.02 73.6298 1126.62 86.3511 1126.62 101C1126.62 115.52 1123.02 128.242 1115.8 139.164C1108.58 149.958 1098.46 158.375 1085.42 164.414C1072.51 170.325 1057.38 173.281 1040.04 173.281H964.466V28.7195H1040.04ZM1013.08 151.115L991.049 128.948H1043.84C1050.8 128.948 1056.75 127.856 1061.68 125.672C1066.75 123.359 1070.61 120.146 1073.27 116.034C1075.93 111.794 1077.25 106.782 1077.25 101C1077.25 95.0891 1075.93 90.0776 1073.27 85.9656C1070.61 81.8537 1066.75 78.7055 1061.68 76.521C1056.75 74.208 1050.8 73.0515 1043.84 73.0515H991.049L1013.08 50.8855V151.115Z" fill="#30FFA7"/>
<path d="M1225.41 176.75C1208.07 176.75 1192.88 173.602 1179.84 167.305C1166.93 161.009 1156.87 152.207 1149.65 140.899C1142.44 129.462 1138.83 116.163 1138.83 101C1138.83 85.8372 1142.44 72.6018 1149.65 61.2939C1156.87 49.8575 1166.93 40.9911 1179.84 34.6947C1192.88 28.3982 1208.07 25.25 1225.41 25.25C1242.76 25.25 1257.88 28.3982 1270.8 34.6947C1283.83 40.9911 1293.96 49.8575 1301.18 61.2939C1308.39 72.6018 1312 85.8372 1312 101C1312 116.163 1308.39 129.462 1301.18 140.899C1293.96 152.207 1283.83 161.009 1270.8 167.305C1257.88 173.602 1242.76 176.75 1225.41 176.75ZM1225.41 132.418C1233.14 132.418 1239.78 131.197 1245.35 128.756C1250.92 126.186 1255.16 122.588 1258.07 117.962C1261.11 113.207 1262.63 107.553 1262.63 101C1262.63 94.4466 1261.11 88.8569 1258.07 84.2309C1255.16 79.4765 1250.92 75.8785 1245.35 73.437C1239.78 70.867 1233.14 69.5821 1225.41 69.5821C1217.69 69.5821 1211.05 70.867 1205.48 73.437C1199.91 75.8785 1195.6 79.4765 1192.57 84.2309C1189.65 88.8569 1188.2 94.4466 1188.2 101C1188.2 107.553 1189.65 113.207 1192.57 117.962C1195.6 122.588 1199.91 126.186 1205.48 128.756C1211.05 131.197 1217.69 132.418 1225.41 132.418Z" fill="#30FFA7"/>
<defs>
<clipPath id="clip0_429_925">
<rect width="201.846" height="202" fill="white"/>
</clipPath>
<clipPath id="clip1_429_925">
<rect width="201.846" height="202" fill="white"/>
</clipPath>
<clipPath id="clip2_429_925">
<rect width="201.378" height="201.289" fill="white" transform="translate(-0.487305)"/>
</clipPath>
</defs>
</svg>
