<svg width="61" height="61" viewBox="0 0 61 61" fill="none" xmlns="http://www.w3.org/2000/svg">
<g clip-path="url(#clip0_563_176)">
<path d="M26.125 52.506C28.2278 55.2631 30.3306 58.0283 32.4333 60.7854C26.5229 58.1743 20.6124 55.5632 14.6938 52.9439C12.9239 46.2296 11.154 39.5154 9.37598 32.793C12.5991 37.6016 15.8304 42.4103 19.0536 47.219C18.6476 43.9997 18.2336 40.7885 17.8276 37.5692C20.588 42.54 23.3565 47.519 26.1169 52.4898L26.125 52.506Z" fill="#30FFA7"/>
<path d="M20.791 33.1984C19.3702 33.1092 17.9413 33.0281 16.5205 32.9389C18.3554 29.9386 20.1821 26.9463 22.0169 23.946C23.1941 24.0514 24.3714 24.1649 25.5486 24.2703C25.2888 24.7569 25.0371 25.2353 24.7773 25.7219C24.6068 26.0381 24.4444 26.3463 24.2739 26.6625C24.144 26.6787 24.006 26.6949 23.8761 26.7112C25.784 26.4679 27.692 26.2246 29.5999 25.9813C28.9828 24.0433 28.3577 22.1052 27.7407 20.1591C25.4268 24.5055 23.1048 28.8519 20.791 33.1984Z" fill="#30FFA7"/>
<path d="M11.6899 43.0914C11.2272 46.5296 10.7563 49.9679 10.2935 53.398C7.96341 47.373 5.63331 41.3561 3.30322 35.331C6.80242 29.3304 10.3097 23.3297 13.8089 17.329C12.6885 23.0053 11.56 28.6897 10.4396 34.3661C12.4287 31.8036 14.4178 29.2412 16.3988 26.6787C14.8319 32.1523 13.265 37.6178 11.698 43.0914H11.6899Z" fill="#30FFA7"/>
<path d="M21.5786 25.6732C20.6287 24.6109 19.6869 23.5405 18.7451 22.4782C22.1631 21.6511 25.5811 20.8239 28.9991 19.9968C29.7542 20.905 30.5092 21.8133 31.2643 22.7215C30.7366 22.8836 30.217 23.0377 29.6892 23.1999C29.3483 23.3053 29.0154 23.4026 28.6744 23.508C28.5688 23.427 28.4633 23.3459 28.3578 23.2648C29.876 24.4406 31.4023 25.6164 32.9205 26.7922C33.8542 24.9839 34.7878 23.1756 35.7296 21.3673C31.0126 22.8026 26.2956 24.2379 21.5867 25.6732H21.5786Z" fill="#30FFA7"/>
<path d="M8.14182 26.2409C5.38143 28.3412 2.61293 30.4414 -0.147461 32.5416C2.46679 26.6383 5.08104 20.7349 7.70341 14.8234C14.4258 13.0556 21.1481 11.2878 27.8786 9.51196C23.0642 12.7313 18.2497 15.9586 13.4353 19.1779C16.6584 18.7725 19.8735 18.3589 23.0966 17.9535C18.1198 20.7105 13.1349 23.4757 8.15806 26.2328L8.14182 26.2409Z" fill="#30FFA7"/>
<path d="M27.4727 20.9133C27.562 19.4942 27.6432 18.067 27.7325 16.6479C30.7364 18.4806 33.7322 20.3051 36.7362 22.1378C36.6306 23.3136 36.517 24.4894 36.4114 25.6652C35.9243 25.4057 35.4453 25.1543 34.9582 24.8948C34.6415 24.7246 34.333 24.5624 34.0164 24.3921C34.0002 24.2623 33.9839 24.1245 33.9677 23.9947C34.2112 25.9004 34.4548 27.806 34.6984 29.7116C36.6388 29.0953 38.5792 28.4709 40.5277 27.8546C36.176 25.5436 31.8243 23.2244 27.4727 20.9133Z" fill="#30FFA7"/>
<path d="M17.5675 11.8229C14.1251 11.3607 10.6828 10.8904 7.24854 10.4282C13.2808 8.10088 19.3049 5.77358 25.3372 3.44629C31.3451 6.94129 37.353 10.4444 43.3609 13.9394C37.6777 12.8203 31.9865 11.6932 26.3033 10.5741C28.8689 12.5608 31.4344 14.5476 33.9999 16.5262C28.5198 14.9611 23.0477 13.3961 17.5675 11.831V11.8229Z" fill="#30FFA7"/>
<path d="M35.0066 21.6997C36.0702 20.7509 37.1419 19.8103 38.2054 18.8696C39.0335 22.2835 39.8617 25.6974 40.6898 29.1113C39.7805 29.8655 38.8712 30.6196 37.9619 31.3738C37.7995 30.8467 37.6452 30.3277 37.4829 29.8006C37.3773 29.46 37.2799 29.1276 37.1743 28.787C37.2555 28.6816 37.3367 28.5761 37.4179 28.4707C36.2407 29.9871 35.0635 31.5116 33.8862 33.028C35.6967 33.9606 37.5072 34.8931 39.3177 35.8337C37.8807 31.1224 36.4436 26.411 35.0066 21.7078V21.6997Z" fill="#30FFA7"/>
<path d="M34.4387 8.27933C32.3359 5.52226 30.2331 2.75707 28.1304 0C34.0408 2.61111 39.9513 5.22222 45.8699 7.84144C47.6398 14.5557 49.4097 21.27 51.1877 27.9924C47.9646 23.1837 44.7333 18.3751 41.5101 13.5664C41.9161 16.7857 42.3301 19.9969 42.7361 23.2162C39.9757 18.2453 37.2072 13.2664 34.4468 8.29555L34.4387 8.27933Z" fill="#30FFA7"/>
<path d="M39.781 27.5869C41.2018 27.6761 42.6307 27.7572 44.0515 27.8464C42.2167 30.8467 40.39 33.839 38.5551 36.8393C37.3779 36.7339 36.2007 36.6204 35.0234 36.515C35.2832 36.0284 35.5349 35.55 35.7947 35.0635C35.9652 34.7472 36.1276 34.4391 36.2981 34.1228C36.428 34.1066 36.566 34.0904 36.6959 34.0741C34.788 34.3174 32.8801 34.5607 30.9722 34.804C31.5892 36.742 32.2143 38.6801 32.8314 40.6262C35.1452 36.2798 37.4672 31.9334 39.781 27.5869Z" fill="#30FFA7"/>
<path d="M48.8739 17.6939C49.3367 14.2557 49.8076 10.8175 50.2704 7.38733C52.6005 13.4123 54.9305 19.4293 57.2606 25.4543C53.7614 31.455 50.2541 37.4557 46.7549 43.4563C47.8753 37.78 49.0038 32.0956 50.1242 26.4193C48.1351 28.9817 46.146 31.5442 44.165 34.1066C45.732 28.633 47.2989 23.1675 48.8658 17.6939H48.8739Z" fill="#30FFA7"/>
<path d="M38.985 35.1121C39.9349 36.1744 40.8767 37.2448 41.8185 38.3071C38.4005 39.1342 34.9825 39.9613 31.5645 40.7884C30.8094 39.8802 30.0544 38.972 29.2993 38.0638C29.827 37.9016 30.3466 37.7475 30.8744 37.5853C31.2153 37.4799 31.5482 37.3826 31.8892 37.2772C31.9948 37.3583 32.1003 37.4394 32.2058 37.5205C30.6876 36.3447 29.1613 35.1689 27.6431 33.993C26.7094 35.8014 25.7758 37.6097 24.834 39.418C29.551 37.9827 34.268 36.5474 38.9769 35.1121H38.985Z" fill="#30FFA7"/>
<path d="M52.4213 34.5445C55.1817 32.4443 57.9502 30.344 60.7106 28.2438C58.0964 34.1472 55.4821 40.0505 52.8598 45.962C46.1374 47.7298 39.415 49.4976 32.6846 51.2734C37.499 48.0542 42.3135 44.8268 47.1279 41.6075C43.9047 42.0129 40.6897 42.4265 37.4665 42.8319C42.4434 40.0749 47.4283 37.3097 52.4051 34.5526L52.4213 34.5445Z" fill="#30FFA7"/>
<path d="M33.0907 39.8802C33.0013 41.2993 32.9202 42.7265 32.8308 44.1456C29.8269 42.3129 26.8311 40.4884 23.8271 38.6557C23.9327 37.4799 24.0463 36.3041 24.1519 35.1283C24.639 35.3878 25.118 35.6392 25.6051 35.8987C25.9218 36.069 26.2303 36.2311 26.5469 36.4014C26.5631 36.5312 26.5794 36.669 26.5956 36.7988C26.3521 34.8932 26.1085 32.9875 25.8649 31.0819C23.9245 31.6982 21.9842 32.3226 20.0356 32.9389C24.3873 35.25 28.739 37.5691 33.0907 39.8802Z" fill="#30FFA7"/>
<path d="M43.0038 48.9624C46.4462 49.4246 49.8886 49.8949 53.3228 50.3572C47.2906 52.6844 41.2664 55.0117 35.2342 57.339C29.2263 53.844 23.2184 50.3409 17.2104 46.8459C22.8936 47.965 28.5849 49.0921 34.268 50.2112C31.7025 48.2245 29.1369 46.2378 26.5714 44.2592C32.0516 45.8242 37.5237 47.3892 43.0038 48.9543V48.9624Z" fill="#30FFA7"/>
<path d="M25.5567 39.0856C24.4931 40.0344 23.4214 40.975 22.3579 41.9157C21.5298 38.5017 20.7017 35.0878 19.8735 31.6739C20.7828 30.9198 21.6921 30.1657 22.6014 29.4115C22.7638 29.9386 22.9181 30.4576 23.0805 30.9847C23.186 31.3252 23.2834 31.6577 23.389 31.9983C23.3078 32.1037 23.2266 32.2091 23.1454 32.3145C24.3226 30.7982 25.4999 29.2737 26.6771 27.7573C24.8666 26.8247 23.0561 25.8922 21.2456 24.9515C22.6826 29.6629 24.1197 34.3742 25.5567 39.0775V39.0856Z" fill="#30FFA7"/>
</g>
<defs>
<clipPath id="clip0_563_176">
<rect width="60.8584" height="60.7854" fill="white" transform="translate(-0.147461)"/>
</clipPath>
</defs>
</svg>
